<mxfile host="app.diagrams.net" modified="2024-05-08T09:55:25.466Z" agent="Mozilla/5.0 (Windows NT 10.0; Win64; x64) AppleWebKit/537.36 (KHTML, like Gecko) Chrome/124.0.0.0 Safari/537.36" etag="3XQ3n-e_C-k2iOM9pdM2" version="24.3.1" type="device">
  <diagram id="C5RBs43oDa-KdzZeNtuy" name="Page-1">
    <mxGraphModel dx="1468" dy="858" grid="1" gridSize="10" guides="1" tooltips="1" connect="1" arrows="1" fold="1" page="1" pageScale="1" pageWidth="827" pageHeight="1169" math="0" shadow="0">
      <root>
        <mxCell id="WIyWlLk6GJQsqaUBKTNV-0" />
        <mxCell id="WIyWlLk6GJQsqaUBKTNV-1" parent="WIyWlLk6GJQsqaUBKTNV-0" />
        <mxCell id="zkfFHV4jXpPFQw0GAbJ--17" value="receiver.c" style="swimlane;fontStyle=0;align=center;verticalAlign=top;childLayout=stackLayout;horizontal=1;startSize=26;horizontalStack=0;resizeParent=1;resizeLast=0;collapsible=1;marginBottom=0;rounded=0;shadow=0;strokeWidth=1;" parent="WIyWlLk6GJQsqaUBKTNV-1" vertex="1">
          <mxGeometry x="560" y="680" width="160" height="322" as="geometry">
            <mxRectangle x="550" y="90" width="160" height="26" as="alternateBounds" />
          </mxGeometry>
        </mxCell>
        <mxCell id="zkfFHV4jXpPFQw0GAbJ--23" value="" style="line;html=1;strokeWidth=1;align=left;verticalAlign=middle;spacingTop=-1;spacingLeft=3;spacingRight=3;rotatable=0;labelPosition=right;points=[];portConstraint=eastwest;" parent="zkfFHV4jXpPFQw0GAbJ--17" vertex="1">
          <mxGeometry y="26" width="160" height="8" as="geometry" />
        </mxCell>
        <mxCell id="zkfFHV4jXpPFQw0GAbJ--24" value="setInnerParameters" style="text;align=left;verticalAlign=top;spacingLeft=4;spacingRight=4;overflow=hidden;rotatable=0;points=[[0,0.5],[1,0.5]];portConstraint=eastwest;" parent="zkfFHV4jXpPFQw0GAbJ--17" vertex="1">
          <mxGeometry y="34" width="160" height="26" as="geometry" />
        </mxCell>
        <mxCell id="zZNGgQvaS-ZARSoZ5ewQ-43" value="getInnerParameters" style="text;align=left;verticalAlign=top;spacingLeft=4;spacingRight=4;overflow=hidden;rotatable=0;points=[[0,0.5],[1,0.5]];portConstraint=eastwest;" parent="zkfFHV4jXpPFQw0GAbJ--17" vertex="1">
          <mxGeometry y="60" width="160" height="26" as="geometry" />
        </mxCell>
        <mxCell id="zZNGgQvaS-ZARSoZ5ewQ-44" value="setOuterParameters" style="text;align=left;verticalAlign=top;spacingLeft=4;spacingRight=4;overflow=hidden;rotatable=0;points=[[0,0.5],[1,0.5]];portConstraint=eastwest;" parent="zkfFHV4jXpPFQw0GAbJ--17" vertex="1">
          <mxGeometry y="86" width="160" height="26" as="geometry" />
        </mxCell>
        <mxCell id="zZNGgQvaS-ZARSoZ5ewQ-45" value="getOuterParameters" style="text;align=left;verticalAlign=top;spacingLeft=4;spacingRight=4;overflow=hidden;rotatable=0;points=[[0,0.5],[1,0.5]];portConstraint=eastwest;" parent="zkfFHV4jXpPFQw0GAbJ--17" vertex="1">
          <mxGeometry y="112" width="160" height="26" as="geometry" />
        </mxCell>
        <mxCell id="zZNGgQvaS-ZARSoZ5ewQ-46" value="setModePy" style="text;align=left;verticalAlign=top;spacingLeft=4;spacingRight=4;overflow=hidden;rotatable=0;points=[[0,0.5],[1,0.5]];portConstraint=eastwest;" parent="zkfFHV4jXpPFQw0GAbJ--17" vertex="1">
          <mxGeometry y="138" width="160" height="26" as="geometry" />
        </mxCell>
        <mxCell id="zZNGgQvaS-ZARSoZ5ewQ-48" value="setRefPy" style="text;align=left;verticalAlign=top;spacingLeft=4;spacingRight=4;overflow=hidden;rotatable=0;points=[[0,0.5],[1,0.5]];portConstraint=eastwest;" parent="zkfFHV4jXpPFQw0GAbJ--17" vertex="1">
          <mxGeometry y="164" width="160" height="26" as="geometry" />
        </mxCell>
        <mxCell id="DhbaXMmRCVyWjGGl7ki2-4" value="setUffPy" style="text;align=left;verticalAlign=top;spacingLeft=4;spacingRight=4;overflow=hidden;rotatable=0;points=[[0,0.5],[1,0.5]];portConstraint=eastwest;" vertex="1" parent="zkfFHV4jXpPFQw0GAbJ--17">
          <mxGeometry y="190" width="160" height="26" as="geometry" />
        </mxCell>
        <mxCell id="DhbaXMmRCVyWjGGl7ki2-5" value="setPhiffPy" style="text;align=left;verticalAlign=top;spacingLeft=4;spacingRight=4;overflow=hidden;rotatable=0;points=[[0,0.5],[1,0.5]];portConstraint=eastwest;" vertex="1" parent="zkfFHV4jXpPFQw0GAbJ--17">
          <mxGeometry y="216" width="160" height="26" as="geometry" />
        </mxCell>
        <mxCell id="zZNGgQvaS-ZARSoZ5ewQ-49" value="getControlDataPy" style="text;align=left;verticalAlign=top;spacingLeft=4;spacingRight=4;overflow=hidden;rotatable=0;points=[[0,0.5],[1,0.5]];portConstraint=eastwest;" parent="zkfFHV4jXpPFQw0GAbJ--17" vertex="1">
          <mxGeometry y="242" width="160" height="26" as="geometry" />
        </mxCell>
        <mxCell id="zZNGgQvaS-ZARSoZ5ewQ-50" value="getMeasurementDataPy" style="text;align=left;verticalAlign=top;spacingLeft=4;spacingRight=4;overflow=hidden;rotatable=0;points=[[0,0.5],[1,0.5]];portConstraint=eastwest;" parent="zkfFHV4jXpPFQw0GAbJ--17" vertex="1">
          <mxGeometry y="268" width="160" height="26" as="geometry" />
        </mxCell>
        <mxCell id="zZNGgQvaS-ZARSoZ5ewQ-188" value="shutDownPy" style="text;align=left;verticalAlign=top;spacingLeft=4;spacingRight=4;overflow=hidden;rotatable=0;points=[[0,0.5],[1,0.5]];portConstraint=eastwest;" parent="zkfFHV4jXpPFQw0GAbJ--17" vertex="1">
          <mxGeometry y="294" width="160" height="28" as="geometry" />
        </mxCell>
        <mxCell id="zZNGgQvaS-ZARSoZ5ewQ-8" value="comms.py" style="swimlane;fontStyle=0;align=center;verticalAlign=top;childLayout=stackLayout;horizontal=1;startSize=26;horizontalStack=0;resizeParent=1;resizeLast=0;collapsible=1;marginBottom=0;rounded=0;shadow=0;strokeWidth=1;" parent="WIyWlLk6GJQsqaUBKTNV-1" vertex="1">
          <mxGeometry x="230" y="670" width="160" height="316" as="geometry">
            <mxRectangle x="550" y="90" width="160" height="26" as="alternateBounds" />
          </mxGeometry>
        </mxCell>
        <mxCell id="zZNGgQvaS-ZARSoZ5ewQ-14" value="" style="line;html=1;strokeWidth=1;align=left;verticalAlign=middle;spacingTop=-1;spacingLeft=3;spacingRight=3;rotatable=0;labelPosition=right;points=[];portConstraint=eastwest;" parent="zZNGgQvaS-ZARSoZ5ewQ-8" vertex="1">
          <mxGeometry y="26" width="160" height="8" as="geometry" />
        </mxCell>
        <mxCell id="zZNGgQvaS-ZARSoZ5ewQ-15" value="setInnerParameters" style="text;align=left;verticalAlign=top;spacingLeft=4;spacingRight=4;overflow=hidden;rotatable=0;points=[[0,0.5],[1,0.5]];portConstraint=eastwest;" parent="zZNGgQvaS-ZARSoZ5ewQ-8" vertex="1">
          <mxGeometry y="34" width="160" height="26" as="geometry" />
        </mxCell>
        <mxCell id="zZNGgQvaS-ZARSoZ5ewQ-16" value="getInnerParameters" style="text;align=left;verticalAlign=top;spacingLeft=4;spacingRight=4;overflow=hidden;rotatable=0;points=[[0,0.5],[1,0.5]];portConstraint=eastwest;" parent="zZNGgQvaS-ZARSoZ5ewQ-8" vertex="1">
          <mxGeometry y="60" width="160" height="26" as="geometry" />
        </mxCell>
        <mxCell id="zZNGgQvaS-ZARSoZ5ewQ-17" value="setOuterParameters" style="text;align=left;verticalAlign=top;spacingLeft=4;spacingRight=4;overflow=hidden;rotatable=0;points=[[0,0.5],[1,0.5]];portConstraint=eastwest;" parent="zZNGgQvaS-ZARSoZ5ewQ-8" vertex="1">
          <mxGeometry y="86" width="160" height="26" as="geometry" />
        </mxCell>
        <mxCell id="zZNGgQvaS-ZARSoZ5ewQ-18" value="getOuterParameters" style="text;align=left;verticalAlign=top;spacingLeft=4;spacingRight=4;overflow=hidden;rotatable=0;points=[[0,0.5],[1,0.5]];portConstraint=eastwest;" parent="zZNGgQvaS-ZARSoZ5ewQ-8" vertex="1">
          <mxGeometry y="112" width="160" height="26" as="geometry" />
        </mxCell>
        <mxCell id="zZNGgQvaS-ZARSoZ5ewQ-19" value="setMode" style="text;align=left;verticalAlign=top;spacingLeft=4;spacingRight=4;overflow=hidden;rotatable=0;points=[[0,0.5],[1,0.5]];portConstraint=eastwest;" parent="zZNGgQvaS-ZARSoZ5ewQ-8" vertex="1">
          <mxGeometry y="138" width="160" height="26" as="geometry" />
        </mxCell>
        <mxCell id="zZNGgQvaS-ZARSoZ5ewQ-20" value="setRef" style="text;align=left;verticalAlign=top;spacingLeft=4;spacingRight=4;overflow=hidden;rotatable=0;points=[[0,0.5],[1,0.5]];portConstraint=eastwest;" parent="zZNGgQvaS-ZARSoZ5ewQ-8" vertex="1">
          <mxGeometry y="164" width="160" height="26" as="geometry" />
        </mxCell>
        <mxCell id="DhbaXMmRCVyWjGGl7ki2-2" value="setUff" style="text;align=left;verticalAlign=top;spacingLeft=4;spacingRight=4;overflow=hidden;rotatable=0;points=[[0,0.5],[1,0.5]];portConstraint=eastwest;" vertex="1" parent="zZNGgQvaS-ZARSoZ5ewQ-8">
          <mxGeometry y="190" width="160" height="26" as="geometry" />
        </mxCell>
        <mxCell id="DhbaXMmRCVyWjGGl7ki2-3" value="setPhiff" style="text;align=left;verticalAlign=top;spacingLeft=4;spacingRight=4;overflow=hidden;rotatable=0;points=[[0,0.5],[1,0.5]];portConstraint=eastwest;" vertex="1" parent="zZNGgQvaS-ZARSoZ5ewQ-8">
          <mxGeometry y="216" width="160" height="26" as="geometry" />
        </mxCell>
        <mxCell id="zZNGgQvaS-ZARSoZ5ewQ-22" value="getControlData" style="text;align=left;verticalAlign=top;spacingLeft=4;spacingRight=4;overflow=hidden;rotatable=0;points=[[0,0.5],[1,0.5]];portConstraint=eastwest;" parent="zZNGgQvaS-ZARSoZ5ewQ-8" vertex="1">
          <mxGeometry y="242" width="160" height="26" as="geometry" />
        </mxCell>
        <mxCell id="zZNGgQvaS-ZARSoZ5ewQ-23" value="getMeasurementData" style="text;align=left;verticalAlign=top;spacingLeft=4;spacingRight=4;overflow=hidden;rotatable=0;points=[[0,0.5],[1,0.5]];portConstraint=eastwest;" parent="zZNGgQvaS-ZARSoZ5ewQ-8" vertex="1">
          <mxGeometry y="268" width="160" height="24" as="geometry" />
        </mxCell>
        <mxCell id="zZNGgQvaS-ZARSoZ5ewQ-189" value="shutDown" style="text;align=left;verticalAlign=top;spacingLeft=4;spacingRight=4;overflow=hidden;rotatable=0;points=[[0,0.5],[1,0.5]];portConstraint=eastwest;" parent="zZNGgQvaS-ZARSoZ5ewQ-8" vertex="1">
          <mxGeometry y="292" width="160" height="24" as="geometry" />
        </mxCell>
        <mxCell id="zZNGgQvaS-ZARSoZ5ewQ-199" style="edgeStyle=orthogonalEdgeStyle;rounded=0;orthogonalLoop=1;jettySize=auto;html=1;" parent="WIyWlLk6GJQsqaUBKTNV-1" source="zZNGgQvaS-ZARSoZ5ewQ-24" target="zZNGgQvaS-ZARSoZ5ewQ-8" edge="1">
          <mxGeometry relative="1" as="geometry" />
        </mxCell>
        <mxCell id="zZNGgQvaS-ZARSoZ5ewQ-24" value="GUI.py" style="swimlane;fontStyle=0;align=center;verticalAlign=top;childLayout=stackLayout;horizontal=1;startSize=26;horizontalStack=0;resizeParent=1;resizeLast=0;collapsible=1;marginBottom=0;rounded=0;shadow=0;strokeWidth=1;" parent="WIyWlLk6GJQsqaUBKTNV-1" vertex="1">
          <mxGeometry x="520" y="370" width="160" height="90" as="geometry">
            <mxRectangle x="550" y="90" width="160" height="26" as="alternateBounds" />
          </mxGeometry>
        </mxCell>
        <mxCell id="zZNGgQvaS-ZARSoZ5ewQ-29" value="field" style="text;align=left;verticalAlign=top;spacingLeft=4;spacingRight=4;overflow=hidden;rotatable=0;points=[[0,0.5],[1,0.5]];portConstraint=eastwest;rounded=0;shadow=0;html=0;" parent="zZNGgQvaS-ZARSoZ5ewQ-24" vertex="1">
          <mxGeometry y="26" width="160" height="26" as="geometry" />
        </mxCell>
        <mxCell id="zZNGgQvaS-ZARSoZ5ewQ-30" value="" style="line;html=1;strokeWidth=1;align=left;verticalAlign=middle;spacingTop=-1;spacingLeft=3;spacingRight=3;rotatable=0;labelPosition=right;points=[];portConstraint=eastwest;" parent="zZNGgQvaS-ZARSoZ5ewQ-24" vertex="1">
          <mxGeometry y="52" width="160" height="8" as="geometry" />
        </mxCell>
        <mxCell id="zZNGgQvaS-ZARSoZ5ewQ-31" value="method" style="text;align=left;verticalAlign=top;spacingLeft=4;spacingRight=4;overflow=hidden;rotatable=0;points=[[0,0.5],[1,0.5]];portConstraint=eastwest;" parent="zZNGgQvaS-ZARSoZ5ewQ-24" vertex="1">
          <mxGeometry y="60" width="160" height="26" as="geometry" />
        </mxCell>
        <mxCell id="zZNGgQvaS-ZARSoZ5ewQ-73" value="PI.c" style="swimlane;fontStyle=0;align=center;verticalAlign=top;childLayout=stackLayout;horizontal=1;startSize=26;horizontalStack=0;resizeParent=1;resizeLast=0;collapsible=1;marginBottom=0;rounded=0;shadow=0;strokeWidth=1;" parent="WIyWlLk6GJQsqaUBKTNV-1" vertex="1">
          <mxGeometry x="960" y="142" width="160" height="270" as="geometry">
            <mxRectangle x="130" y="380" width="160" height="26" as="alternateBounds" />
          </mxGeometry>
        </mxCell>
        <mxCell id="zZNGgQvaS-ZARSoZ5ewQ-74" value="struct PI_t" style="text;align=left;verticalAlign=top;spacingLeft=4;spacingRight=4;overflow=hidden;rotatable=0;points=[[0,0.5],[1,0.5]];portConstraint=eastwest;" parent="zZNGgQvaS-ZARSoZ5ewQ-73" vertex="1">
          <mxGeometry y="26" width="160" height="26" as="geometry" />
        </mxCell>
        <mxCell id="zZNGgQvaS-ZARSoZ5ewQ-76" value="" style="line;html=1;strokeWidth=1;align=left;verticalAlign=middle;spacingTop=-1;spacingLeft=3;spacingRight=3;rotatable=0;labelPosition=right;points=[];portConstraint=eastwest;" parent="zZNGgQvaS-ZARSoZ5ewQ-73" vertex="1">
          <mxGeometry y="52" width="160" height="8" as="geometry" />
        </mxCell>
        <mxCell id="zZNGgQvaS-ZARSoZ5ewQ-79" value="initialize_PI" style="text;align=left;verticalAlign=top;spacingLeft=4;spacingRight=4;overflow=hidden;rotatable=0;points=[[0,0.5],[1,0.5]];portConstraint=eastwest;" parent="zZNGgQvaS-ZARSoZ5ewQ-73" vertex="1">
          <mxGeometry y="60" width="160" height="26" as="geometry" />
        </mxCell>
        <mxCell id="zZNGgQvaS-ZARSoZ5ewQ-80" value="destroy_PI" style="text;align=left;verticalAlign=top;spacingLeft=4;spacingRight=4;overflow=hidden;rotatable=0;points=[[0,0.5],[1,0.5]];portConstraint=eastwest;" parent="zZNGgQvaS-ZARSoZ5ewQ-73" vertex="1">
          <mxGeometry y="86" width="160" height="26" as="geometry" />
        </mxCell>
        <mxCell id="zZNGgQvaS-ZARSoZ5ewQ-82" value="updateStatePI" style="text;align=left;verticalAlign=top;spacingLeft=4;spacingRight=4;overflow=hidden;rotatable=0;points=[[0,0.5],[1,0.5]];portConstraint=eastwest;" parent="zZNGgQvaS-ZARSoZ5ewQ-73" vertex="1">
          <mxGeometry y="112" width="160" height="26" as="geometry" />
        </mxCell>
        <mxCell id="zZNGgQvaS-ZARSoZ5ewQ-81" value="calculateOutputPI" style="text;align=left;verticalAlign=top;spacingLeft=4;spacingRight=4;overflow=hidden;rotatable=0;points=[[0,0.5],[1,0.5]];portConstraint=eastwest;" parent="zZNGgQvaS-ZARSoZ5ewQ-73" vertex="1">
          <mxGeometry y="138" width="160" height="26" as="geometry" />
        </mxCell>
        <mxCell id="zZNGgQvaS-ZARSoZ5ewQ-83" value="getHPI" style="text;align=left;verticalAlign=top;spacingLeft=4;spacingRight=4;overflow=hidden;rotatable=0;points=[[0,0.5],[1,0.5]];portConstraint=eastwest;" parent="zZNGgQvaS-ZARSoZ5ewQ-73" vertex="1">
          <mxGeometry y="164" width="160" height="26" as="geometry" />
        </mxCell>
        <mxCell id="zZNGgQvaS-ZARSoZ5ewQ-84" value="setParametersPI" style="text;align=left;verticalAlign=top;spacingLeft=4;spacingRight=4;overflow=hidden;rotatable=0;points=[[0,0.5],[1,0.5]];portConstraint=eastwest;" parent="zZNGgQvaS-ZARSoZ5ewQ-73" vertex="1">
          <mxGeometry y="190" width="160" height="26" as="geometry" />
        </mxCell>
        <mxCell id="zZNGgQvaS-ZARSoZ5ewQ-85" value="getParametersPI" style="text;align=left;verticalAlign=top;spacingLeft=4;spacingRight=4;overflow=hidden;rotatable=0;points=[[0,0.5],[1,0.5]];portConstraint=eastwest;" parent="zZNGgQvaS-ZARSoZ5ewQ-73" vertex="1">
          <mxGeometry y="216" width="160" height="26" as="geometry" />
        </mxCell>
        <mxCell id="zZNGgQvaS-ZARSoZ5ewQ-86" value="resetPI" style="text;align=left;verticalAlign=top;spacingLeft=4;spacingRight=4;overflow=hidden;rotatable=0;points=[[0,0.5],[1,0.5]];portConstraint=eastwest;" parent="zZNGgQvaS-ZARSoZ5ewQ-73" vertex="1">
          <mxGeometry y="242" width="160" height="26" as="geometry" />
        </mxCell>
        <mxCell id="zZNGgQvaS-ZARSoZ5ewQ-87" value="PID.c" style="swimlane;fontStyle=0;align=center;verticalAlign=top;childLayout=stackLayout;horizontal=1;startSize=26;horizontalStack=0;resizeParent=1;resizeLast=0;collapsible=1;marginBottom=0;rounded=0;shadow=0;strokeWidth=1;" parent="WIyWlLk6GJQsqaUBKTNV-1" vertex="1">
          <mxGeometry x="960" y="450" width="160" height="270" as="geometry">
            <mxRectangle x="130" y="380" width="160" height="26" as="alternateBounds" />
          </mxGeometry>
        </mxCell>
        <mxCell id="zZNGgQvaS-ZARSoZ5ewQ-88" value="struct PID_t" style="text;align=left;verticalAlign=top;spacingLeft=4;spacingRight=4;overflow=hidden;rotatable=0;points=[[0,0.5],[1,0.5]];portConstraint=eastwest;" parent="zZNGgQvaS-ZARSoZ5ewQ-87" vertex="1">
          <mxGeometry y="26" width="160" height="26" as="geometry" />
        </mxCell>
        <mxCell id="zZNGgQvaS-ZARSoZ5ewQ-89" value="" style="line;html=1;strokeWidth=1;align=left;verticalAlign=middle;spacingTop=-1;spacingLeft=3;spacingRight=3;rotatable=0;labelPosition=right;points=[];portConstraint=eastwest;" parent="zZNGgQvaS-ZARSoZ5ewQ-87" vertex="1">
          <mxGeometry y="52" width="160" height="8" as="geometry" />
        </mxCell>
        <mxCell id="zZNGgQvaS-ZARSoZ5ewQ-90" value="initialize_PID" style="text;align=left;verticalAlign=top;spacingLeft=4;spacingRight=4;overflow=hidden;rotatable=0;points=[[0,0.5],[1,0.5]];portConstraint=eastwest;" parent="zZNGgQvaS-ZARSoZ5ewQ-87" vertex="1">
          <mxGeometry y="60" width="160" height="26" as="geometry" />
        </mxCell>
        <mxCell id="zZNGgQvaS-ZARSoZ5ewQ-91" value="destroy_PID" style="text;align=left;verticalAlign=top;spacingLeft=4;spacingRight=4;overflow=hidden;rotatable=0;points=[[0,0.5],[1,0.5]];portConstraint=eastwest;" parent="zZNGgQvaS-ZARSoZ5ewQ-87" vertex="1">
          <mxGeometry y="86" width="160" height="26" as="geometry" />
        </mxCell>
        <mxCell id="zZNGgQvaS-ZARSoZ5ewQ-92" value="updateStatePID" style="text;align=left;verticalAlign=top;spacingLeft=4;spacingRight=4;overflow=hidden;rotatable=0;points=[[0,0.5],[1,0.5]];portConstraint=eastwest;" parent="zZNGgQvaS-ZARSoZ5ewQ-87" vertex="1">
          <mxGeometry y="112" width="160" height="26" as="geometry" />
        </mxCell>
        <mxCell id="zZNGgQvaS-ZARSoZ5ewQ-93" value="calculateOutputPID" style="text;align=left;verticalAlign=top;spacingLeft=4;spacingRight=4;overflow=hidden;rotatable=0;points=[[0,0.5],[1,0.5]];portConstraint=eastwest;" parent="zZNGgQvaS-ZARSoZ5ewQ-87" vertex="1">
          <mxGeometry y="138" width="160" height="26" as="geometry" />
        </mxCell>
        <mxCell id="zZNGgQvaS-ZARSoZ5ewQ-94" value="getHPID" style="text;align=left;verticalAlign=top;spacingLeft=4;spacingRight=4;overflow=hidden;rotatable=0;points=[[0,0.5],[1,0.5]];portConstraint=eastwest;" parent="zZNGgQvaS-ZARSoZ5ewQ-87" vertex="1">
          <mxGeometry y="164" width="160" height="26" as="geometry" />
        </mxCell>
        <mxCell id="zZNGgQvaS-ZARSoZ5ewQ-95" value="setParametersPID" style="text;align=left;verticalAlign=top;spacingLeft=4;spacingRight=4;overflow=hidden;rotatable=0;points=[[0,0.5],[1,0.5]];portConstraint=eastwest;" parent="zZNGgQvaS-ZARSoZ5ewQ-87" vertex="1">
          <mxGeometry y="190" width="160" height="26" as="geometry" />
        </mxCell>
        <mxCell id="zZNGgQvaS-ZARSoZ5ewQ-96" value="getParametersPID" style="text;align=left;verticalAlign=top;spacingLeft=4;spacingRight=4;overflow=hidden;rotatable=0;points=[[0,0.5],[1,0.5]];portConstraint=eastwest;" parent="zZNGgQvaS-ZARSoZ5ewQ-87" vertex="1">
          <mxGeometry y="216" width="160" height="26" as="geometry" />
        </mxCell>
        <mxCell id="zZNGgQvaS-ZARSoZ5ewQ-97" value="resetPID" style="text;align=left;verticalAlign=top;spacingLeft=4;spacingRight=4;overflow=hidden;rotatable=0;points=[[0,0.5],[1,0.5]];portConstraint=eastwest;" parent="zZNGgQvaS-ZARSoZ5ewQ-87" vertex="1">
          <mxGeometry y="242" width="160" height="26" as="geometry" />
        </mxCell>
        <mxCell id="zZNGgQvaS-ZARSoZ5ewQ-98" value="modeMonitor.c" style="swimlane;fontStyle=0;align=center;verticalAlign=top;childLayout=stackLayout;horizontal=1;startSize=26;horizontalStack=0;resizeParent=1;resizeLast=0;collapsible=1;marginBottom=0;rounded=0;shadow=0;strokeWidth=1;" parent="WIyWlLk6GJQsqaUBKTNV-1" vertex="1">
          <mxGeometry x="960" y="760" width="160" height="164" as="geometry">
            <mxRectangle x="130" y="380" width="160" height="26" as="alternateBounds" />
          </mxGeometry>
        </mxCell>
        <mxCell id="zZNGgQvaS-ZARSoZ5ewQ-99" value="struct ModeMonitor_t" style="text;align=left;verticalAlign=top;spacingLeft=4;spacingRight=4;overflow=hidden;rotatable=0;points=[[0,0.5],[1,0.5]];portConstraint=eastwest;" parent="zZNGgQvaS-ZARSoZ5ewQ-98" vertex="1">
          <mxGeometry y="26" width="160" height="26" as="geometry" />
        </mxCell>
        <mxCell id="zZNGgQvaS-ZARSoZ5ewQ-101" value="" style="line;html=1;strokeWidth=1;align=left;verticalAlign=middle;spacingTop=-1;spacingLeft=3;spacingRight=3;rotatable=0;labelPosition=right;points=[];portConstraint=eastwest;" parent="zZNGgQvaS-ZARSoZ5ewQ-98" vertex="1">
          <mxGeometry y="52" width="160" height="8" as="geometry" />
        </mxCell>
        <mxCell id="zZNGgQvaS-ZARSoZ5ewQ-102" value="initialize_ModeMonitor" style="text;align=left;verticalAlign=top;spacingLeft=4;spacingRight=4;overflow=hidden;rotatable=0;points=[[0,0.5],[1,0.5]];portConstraint=eastwest;fontStyle=0" parent="zZNGgQvaS-ZARSoZ5ewQ-98" vertex="1">
          <mxGeometry y="60" width="160" height="26" as="geometry" />
        </mxCell>
        <mxCell id="DhbaXMmRCVyWjGGl7ki2-35" value="destroy_DataMonitor" style="text;align=left;verticalAlign=top;spacingLeft=4;spacingRight=4;overflow=hidden;rotatable=0;points=[[0,0.5],[1,0.5]];portConstraint=eastwest;" vertex="1" parent="zZNGgQvaS-ZARSoZ5ewQ-98">
          <mxGeometry y="86" width="160" height="26" as="geometry" />
        </mxCell>
        <mxCell id="zZNGgQvaS-ZARSoZ5ewQ-103" value="setMode" style="text;align=left;verticalAlign=top;spacingLeft=4;spacingRight=4;overflow=hidden;rotatable=0;points=[[0,0.5],[1,0.5]];portConstraint=eastwest;" parent="zZNGgQvaS-ZARSoZ5ewQ-98" vertex="1">
          <mxGeometry y="112" width="160" height="26" as="geometry" />
        </mxCell>
        <mxCell id="zZNGgQvaS-ZARSoZ5ewQ-104" value="getMode" style="text;align=left;verticalAlign=top;spacingLeft=4;spacingRight=4;overflow=hidden;rotatable=0;points=[[0,0.5],[1,0.5]];portConstraint=eastwest;" parent="zZNGgQvaS-ZARSoZ5ewQ-98" vertex="1">
          <mxGeometry y="138" width="160" height="26" as="geometry" />
        </mxCell>
        <mxCell id="zZNGgQvaS-ZARSoZ5ewQ-105" value="ReferenceGenerator.c" style="swimlane;fontStyle=0;align=center;verticalAlign=top;childLayout=stackLayout;horizontal=1;startSize=26;horizontalStack=0;resizeParent=1;resizeLast=0;collapsible=1;marginBottom=0;rounded=0;shadow=0;strokeWidth=1;" parent="WIyWlLk6GJQsqaUBKTNV-1" vertex="1">
          <mxGeometry x="960" y="960" width="160" height="268" as="geometry">
            <mxRectangle x="130" y="380" width="160" height="26" as="alternateBounds" />
          </mxGeometry>
        </mxCell>
        <mxCell id="zZNGgQvaS-ZARSoZ5ewQ-106" value="ReferenceGenerator_t" style="text;align=left;verticalAlign=top;spacingLeft=4;spacingRight=4;overflow=hidden;rotatable=0;points=[[0,0.5],[1,0.5]];portConstraint=eastwest;" parent="zZNGgQvaS-ZARSoZ5ewQ-105" vertex="1">
          <mxGeometry y="26" width="160" height="26" as="geometry" />
        </mxCell>
        <mxCell id="zZNGgQvaS-ZARSoZ5ewQ-108" value="" style="line;html=1;strokeWidth=1;align=left;verticalAlign=middle;spacingTop=-1;spacingLeft=3;spacingRight=3;rotatable=0;labelPosition=right;points=[];portConstraint=eastwest;" parent="zZNGgQvaS-ZARSoZ5ewQ-105" vertex="1">
          <mxGeometry y="52" width="160" height="8" as="geometry" />
        </mxCell>
        <mxCell id="zZNGgQvaS-ZARSoZ5ewQ-109" value="initialize_referenceGenerator" style="text;align=left;verticalAlign=top;spacingLeft=4;spacingRight=4;overflow=hidden;rotatable=0;points=[[0,0.5],[1,0.5]];portConstraint=eastwest;fontStyle=0" parent="zZNGgQvaS-ZARSoZ5ewQ-105" vertex="1">
          <mxGeometry y="60" width="160" height="26" as="geometry" />
        </mxCell>
        <mxCell id="DhbaXMmRCVyWjGGl7ki2-38" value="destroy_referenceGenerator" style="text;align=left;verticalAlign=top;spacingLeft=4;spacingRight=4;overflow=hidden;rotatable=0;points=[[0,0.5],[1,0.5]];portConstraint=eastwest;fontStyle=0" vertex="1" parent="zZNGgQvaS-ZARSoZ5ewQ-105">
          <mxGeometry y="86" width="160" height="26" as="geometry" />
        </mxCell>
        <mxCell id="zZNGgQvaS-ZARSoZ5ewQ-110" value="setRef" style="text;align=left;verticalAlign=top;spacingLeft=4;spacingRight=4;overflow=hidden;rotatable=0;points=[[0,0.5],[1,0.5]];portConstraint=eastwest;" parent="zZNGgQvaS-ZARSoZ5ewQ-105" vertex="1">
          <mxGeometry y="112" width="160" height="26" as="geometry" />
        </mxCell>
        <mxCell id="DhbaXMmRCVyWjGGl7ki2-0" value="setUff" style="text;align=left;verticalAlign=top;spacingLeft=4;spacingRight=4;overflow=hidden;rotatable=0;points=[[0,0.5],[1,0.5]];portConstraint=eastwest;" vertex="1" parent="zZNGgQvaS-ZARSoZ5ewQ-105">
          <mxGeometry y="138" width="160" height="26" as="geometry" />
        </mxCell>
        <mxCell id="DhbaXMmRCVyWjGGl7ki2-1" value="setPhiff" style="text;align=left;verticalAlign=top;spacingLeft=4;spacingRight=4;overflow=hidden;rotatable=0;points=[[0,0.5],[1,0.5]];portConstraint=eastwest;" vertex="1" parent="zZNGgQvaS-ZARSoZ5ewQ-105">
          <mxGeometry y="164" width="160" height="26" as="geometry" />
        </mxCell>
        <mxCell id="zZNGgQvaS-ZARSoZ5ewQ-116" value="getRef" style="text;align=left;verticalAlign=top;spacingLeft=4;spacingRight=4;overflow=hidden;rotatable=0;points=[[0,0.5],[1,0.5]];portConstraint=eastwest;" parent="zZNGgQvaS-ZARSoZ5ewQ-105" vertex="1">
          <mxGeometry y="190" width="160" height="26" as="geometry" />
        </mxCell>
        <mxCell id="zZNGgQvaS-ZARSoZ5ewQ-128" value="getUff" style="text;align=left;verticalAlign=top;spacingLeft=4;spacingRight=4;overflow=hidden;rotatable=0;points=[[0,0.5],[1,0.5]];portConstraint=eastwest;" parent="zZNGgQvaS-ZARSoZ5ewQ-105" vertex="1">
          <mxGeometry y="216" width="160" height="26" as="geometry" />
        </mxCell>
        <mxCell id="zZNGgQvaS-ZARSoZ5ewQ-129" value="getPhiff" style="text;align=left;verticalAlign=top;spacingLeft=4;spacingRight=4;overflow=hidden;rotatable=0;points=[[0,0.5],[1,0.5]];portConstraint=eastwest;" parent="zZNGgQvaS-ZARSoZ5ewQ-105" vertex="1">
          <mxGeometry y="242" width="160" height="26" as="geometry" />
        </mxCell>
        <mxCell id="zZNGgQvaS-ZARSoZ5ewQ-130" value="regulator.c" style="swimlane;fontStyle=0;align=center;verticalAlign=top;childLayout=stackLayout;horizontal=1;startSize=26;horizontalStack=0;resizeParent=1;resizeLast=0;collapsible=1;marginBottom=0;rounded=0;shadow=0;strokeWidth=1;" parent="WIyWlLk6GJQsqaUBKTNV-1" vertex="1">
          <mxGeometry x="960" y="1490" width="160" height="168" as="geometry">
            <mxRectangle x="130" y="380" width="160" height="26" as="alternateBounds" />
          </mxGeometry>
        </mxCell>
        <mxCell id="zZNGgQvaS-ZARSoZ5ewQ-131" value="Regulator_t" style="text;align=left;verticalAlign=top;spacingLeft=4;spacingRight=4;overflow=hidden;rotatable=0;points=[[0,0.5],[1,0.5]];portConstraint=eastwest;" parent="zZNGgQvaS-ZARSoZ5ewQ-130" vertex="1">
          <mxGeometry y="26" width="160" height="26" as="geometry" />
        </mxCell>
        <mxCell id="zZNGgQvaS-ZARSoZ5ewQ-133" value="" style="line;html=1;strokeWidth=1;align=left;verticalAlign=middle;spacingTop=-1;spacingLeft=3;spacingRight=3;rotatable=0;labelPosition=right;points=[];portConstraint=eastwest;" parent="zZNGgQvaS-ZARSoZ5ewQ-130" vertex="1">
          <mxGeometry y="52" width="160" height="8" as="geometry" />
        </mxCell>
        <mxCell id="zZNGgQvaS-ZARSoZ5ewQ-134" value="initialize_regulator" style="text;align=left;verticalAlign=top;spacingLeft=4;spacingRight=4;overflow=hidden;rotatable=0;points=[[0,0.5],[1,0.5]];portConstraint=eastwest;fontStyle=0" parent="zZNGgQvaS-ZARSoZ5ewQ-130" vertex="1">
          <mxGeometry y="60" width="160" height="26" as="geometry" />
        </mxCell>
        <mxCell id="zZNGgQvaS-ZARSoZ5ewQ-135" value="sendDataToOpCom" style="text;align=left;verticalAlign=top;spacingLeft=4;spacingRight=4;overflow=hidden;rotatable=0;points=[[0,0.5],[1,0.5]];portConstraint=eastwest;" parent="zZNGgQvaS-ZARSoZ5ewQ-130" vertex="1">
          <mxGeometry y="86" width="160" height="26" as="geometry" />
        </mxCell>
        <mxCell id="zZNGgQvaS-ZARSoZ5ewQ-137" value="shutDown" style="text;align=left;verticalAlign=top;spacingLeft=4;spacingRight=4;overflow=hidden;rotatable=0;points=[[0,0.5],[1,0.5]];portConstraint=eastwest;" parent="zZNGgQvaS-ZARSoZ5ewQ-130" vertex="1">
          <mxGeometry y="112" width="160" height="26" as="geometry" />
        </mxCell>
        <mxCell id="DhbaXMmRCVyWjGGl7ki2-22" style="edgeStyle=orthogonalEdgeStyle;rounded=0;orthogonalLoop=1;jettySize=auto;html=1;entryX=0;entryY=0.5;entryDx=0;entryDy=0;fillColor=#f8cecc;strokeColor=#b85450;" edge="1" parent="zZNGgQvaS-ZARSoZ5ewQ-130" source="zZNGgQvaS-ZARSoZ5ewQ-139" target="zZNGgQvaS-ZARSoZ5ewQ-135">
          <mxGeometry relative="1" as="geometry">
            <Array as="points">
              <mxPoint x="-60" y="151" />
              <mxPoint x="-60" y="99" />
            </Array>
          </mxGeometry>
        </mxCell>
        <mxCell id="zZNGgQvaS-ZARSoZ5ewQ-139" value="*run_regulator" style="text;align=left;verticalAlign=top;spacingLeft=4;spacingRight=4;overflow=hidden;rotatable=0;points=[[0,0.5],[1,0.5]];portConstraint=eastwest;" parent="zZNGgQvaS-ZARSoZ5ewQ-130" vertex="1">
          <mxGeometry y="138" width="160" height="26" as="geometry" />
        </mxCell>
        <mxCell id="zZNGgQvaS-ZARSoZ5ewQ-210" style="edgeStyle=orthogonalEdgeStyle;rounded=0;orthogonalLoop=1;jettySize=auto;html=1;fillColor=#d5e8d4;strokeColor=#82b366;" parent="WIyWlLk6GJQsqaUBKTNV-1" source="zZNGgQvaS-ZARSoZ5ewQ-141" target="zZNGgQvaS-ZARSoZ5ewQ-79" edge="1">
          <mxGeometry relative="1" as="geometry" />
        </mxCell>
        <mxCell id="zZNGgQvaS-ZARSoZ5ewQ-211" style="edgeStyle=orthogonalEdgeStyle;rounded=0;orthogonalLoop=1;jettySize=auto;html=1;fillColor=#d5e8d4;strokeColor=#82b366;" parent="WIyWlLk6GJQsqaUBKTNV-1" source="zZNGgQvaS-ZARSoZ5ewQ-141" target="zZNGgQvaS-ZARSoZ5ewQ-156" edge="1">
          <mxGeometry relative="1" as="geometry" />
        </mxCell>
        <mxCell id="zZNGgQvaS-ZARSoZ5ewQ-212" style="edgeStyle=orthogonalEdgeStyle;rounded=0;orthogonalLoop=1;jettySize=auto;html=1;fillColor=#d5e8d4;strokeColor=#82b366;" parent="WIyWlLk6GJQsqaUBKTNV-1" source="zZNGgQvaS-ZARSoZ5ewQ-141" target="zZNGgQvaS-ZARSoZ5ewQ-102" edge="1">
          <mxGeometry relative="1" as="geometry" />
        </mxCell>
        <mxCell id="zZNGgQvaS-ZARSoZ5ewQ-213" style="edgeStyle=orthogonalEdgeStyle;rounded=0;orthogonalLoop=1;jettySize=auto;html=1;fillColor=#d5e8d4;strokeColor=#82b366;" parent="WIyWlLk6GJQsqaUBKTNV-1" source="zZNGgQvaS-ZARSoZ5ewQ-141" target="zZNGgQvaS-ZARSoZ5ewQ-90" edge="1">
          <mxGeometry relative="1" as="geometry" />
        </mxCell>
        <mxCell id="zZNGgQvaS-ZARSoZ5ewQ-214" style="edgeStyle=orthogonalEdgeStyle;rounded=0;orthogonalLoop=1;jettySize=auto;html=1;fillColor=#d5e8d4;strokeColor=#82b366;" parent="WIyWlLk6GJQsqaUBKTNV-1" source="zZNGgQvaS-ZARSoZ5ewQ-141" target="zZNGgQvaS-ZARSoZ5ewQ-109" edge="1">
          <mxGeometry relative="1" as="geometry" />
        </mxCell>
        <mxCell id="zZNGgQvaS-ZARSoZ5ewQ-215" style="edgeStyle=orthogonalEdgeStyle;rounded=0;orthogonalLoop=1;jettySize=auto;html=1;fillColor=#d5e8d4;strokeColor=#82b366;" parent="WIyWlLk6GJQsqaUBKTNV-1" source="zZNGgQvaS-ZARSoZ5ewQ-141" target="zZNGgQvaS-ZARSoZ5ewQ-150" edge="1">
          <mxGeometry relative="1" as="geometry" />
        </mxCell>
        <mxCell id="zZNGgQvaS-ZARSoZ5ewQ-217" style="edgeStyle=orthogonalEdgeStyle;rounded=0;orthogonalLoop=1;jettySize=auto;html=1;fillColor=#d5e8d4;strokeColor=#82b366;" parent="WIyWlLk6GJQsqaUBKTNV-1" source="zZNGgQvaS-ZARSoZ5ewQ-141" target="zZNGgQvaS-ZARSoZ5ewQ-134" edge="1">
          <mxGeometry relative="1" as="geometry" />
        </mxCell>
        <mxCell id="zZNGgQvaS-ZARSoZ5ewQ-218" style="edgeStyle=orthogonalEdgeStyle;rounded=0;orthogonalLoop=1;jettySize=auto;html=1;fillColor=#d5e8d4;strokeColor=#82b366;" parent="WIyWlLk6GJQsqaUBKTNV-1" source="zZNGgQvaS-ZARSoZ5ewQ-141" target="zZNGgQvaS-ZARSoZ5ewQ-139" edge="1">
          <mxGeometry relative="1" as="geometry">
            <Array as="points">
              <mxPoint x="1530" y="1680" />
              <mxPoint x="1040" y="1680" />
            </Array>
          </mxGeometry>
        </mxCell>
        <mxCell id="zZNGgQvaS-ZARSoZ5ewQ-141" value="Main.c" style="swimlane;fontStyle=0;align=center;verticalAlign=top;childLayout=stackLayout;horizontal=1;startSize=26;horizontalStack=0;resizeParent=1;resizeLast=0;collapsible=1;marginBottom=0;rounded=0;shadow=0;strokeWidth=1;" parent="WIyWlLk6GJQsqaUBKTNV-1" vertex="1">
          <mxGeometry x="1450" y="720" width="160" height="70" as="geometry">
            <mxRectangle x="340" y="380" width="170" height="26" as="alternateBounds" />
          </mxGeometry>
        </mxCell>
        <mxCell id="zZNGgQvaS-ZARSoZ5ewQ-143" value="" style="line;html=1;strokeWidth=1;align=left;verticalAlign=middle;spacingTop=-1;spacingLeft=3;spacingRight=3;rotatable=0;labelPosition=right;points=[];portConstraint=eastwest;" parent="zZNGgQvaS-ZARSoZ5ewQ-141" vertex="1">
          <mxGeometry y="26" width="160" height="44" as="geometry" />
        </mxCell>
        <mxCell id="zZNGgQvaS-ZARSoZ5ewQ-144" value="DataMonitor.c" style="swimlane;fontStyle=0;align=center;verticalAlign=top;childLayout=stackLayout;horizontal=1;startSize=26;horizontalStack=0;resizeParent=1;resizeLast=0;collapsible=1;marginBottom=0;rounded=0;shadow=0;strokeWidth=1;" parent="WIyWlLk6GJQsqaUBKTNV-1" vertex="1">
          <mxGeometry x="960" y="1260" width="160" height="190" as="geometry">
            <mxRectangle x="130" y="380" width="160" height="26" as="alternateBounds" />
          </mxGeometry>
        </mxCell>
        <mxCell id="zZNGgQvaS-ZARSoZ5ewQ-145" value="Data_t" style="text;align=left;verticalAlign=top;spacingLeft=4;spacingRight=4;overflow=hidden;rotatable=0;points=[[0,0.5],[1,0.5]];portConstraint=eastwest;" parent="zZNGgQvaS-ZARSoZ5ewQ-144" vertex="1">
          <mxGeometry y="26" width="160" height="26" as="geometry" />
        </mxCell>
        <mxCell id="zZNGgQvaS-ZARSoZ5ewQ-146" value="" style="line;html=1;strokeWidth=1;align=left;verticalAlign=middle;spacingTop=-1;spacingLeft=3;spacingRight=3;rotatable=0;labelPosition=right;points=[];portConstraint=eastwest;" parent="zZNGgQvaS-ZARSoZ5ewQ-144" vertex="1">
          <mxGeometry y="52" width="160" height="8" as="geometry" />
        </mxCell>
        <mxCell id="zZNGgQvaS-ZARSoZ5ewQ-147" value="putData" style="text;align=left;verticalAlign=top;spacingLeft=4;spacingRight=4;overflow=hidden;rotatable=0;points=[[0,0.5],[1,0.5]];portConstraint=eastwest;fontStyle=0" parent="zZNGgQvaS-ZARSoZ5ewQ-144" vertex="1">
          <mxGeometry y="60" width="160" height="26" as="geometry" />
        </mxCell>
        <mxCell id="zZNGgQvaS-ZARSoZ5ewQ-192" value="getControlData" style="text;align=left;verticalAlign=top;spacingLeft=4;spacingRight=4;overflow=hidden;rotatable=0;points=[[0,0.5],[1,0.5]];portConstraint=eastwest;" parent="zZNGgQvaS-ZARSoZ5ewQ-144" vertex="1">
          <mxGeometry y="86" width="160" height="26" as="geometry" />
        </mxCell>
        <mxCell id="zZNGgQvaS-ZARSoZ5ewQ-148" value="getMeasurementData" style="text;align=left;verticalAlign=top;spacingLeft=4;spacingRight=4;overflow=hidden;rotatable=0;points=[[0,0.5],[1,0.5]];portConstraint=eastwest;" parent="zZNGgQvaS-ZARSoZ5ewQ-144" vertex="1">
          <mxGeometry y="112" width="160" height="26" as="geometry" />
        </mxCell>
        <mxCell id="zZNGgQvaS-ZARSoZ5ewQ-150" value="initialize_DataMonitor" style="text;align=left;verticalAlign=top;spacingLeft=4;spacingRight=4;overflow=hidden;rotatable=0;points=[[0,0.5],[1,0.5]];portConstraint=eastwest;" parent="zZNGgQvaS-ZARSoZ5ewQ-144" vertex="1">
          <mxGeometry y="138" width="160" height="26" as="geometry" />
        </mxCell>
        <mxCell id="DhbaXMmRCVyWjGGl7ki2-39" value="destroy_DataMonitor" style="text;align=left;verticalAlign=top;spacingLeft=4;spacingRight=4;overflow=hidden;rotatable=0;points=[[0,0.5],[1,0.5]];portConstraint=eastwest;fontStyle=0" vertex="1" parent="zZNGgQvaS-ZARSoZ5ewQ-144">
          <mxGeometry y="164" width="160" height="26" as="geometry" />
        </mxCell>
        <mxCell id="zZNGgQvaS-ZARSoZ5ewQ-151" value="comms.c" style="swimlane;fontStyle=0;align=center;verticalAlign=top;childLayout=stackLayout;horizontal=1;startSize=26;horizontalStack=0;resizeParent=1;resizeLast=0;collapsible=1;marginBottom=0;rounded=0;shadow=0;strokeWidth=1;" parent="WIyWlLk6GJQsqaUBKTNV-1" vertex="1">
          <mxGeometry x="960" y="40" width="160" height="60" as="geometry">
            <mxRectangle x="130" y="380" width="160" height="26" as="alternateBounds" />
          </mxGeometry>
        </mxCell>
        <mxCell id="zZNGgQvaS-ZARSoZ5ewQ-154" value="" style="line;html=1;strokeWidth=1;align=left;verticalAlign=middle;spacingTop=-1;spacingLeft=3;spacingRight=3;rotatable=0;labelPosition=right;points=[];portConstraint=eastwest;" parent="zZNGgQvaS-ZARSoZ5ewQ-151" vertex="1">
          <mxGeometry y="26" width="160" height="8" as="geometry" />
        </mxCell>
        <mxCell id="zZNGgQvaS-ZARSoZ5ewQ-156" value="startOpcom" style="text;align=left;verticalAlign=top;spacingLeft=4;spacingRight=4;overflow=hidden;rotatable=0;points=[[0,0.5],[1,0.5]];portConstraint=eastwest;" parent="zZNGgQvaS-ZARSoZ5ewQ-151" vertex="1">
          <mxGeometry y="34" width="160" height="26" as="geometry" />
        </mxCell>
        <mxCell id="zZNGgQvaS-ZARSoZ5ewQ-166" style="edgeStyle=orthogonalEdgeStyle;rounded=0;orthogonalLoop=1;jettySize=auto;html=1;fillColor=#d5e8d4;strokeColor=#82b366;" parent="WIyWlLk6GJQsqaUBKTNV-1" source="zZNGgQvaS-ZARSoZ5ewQ-156" target="zZNGgQvaS-ZARSoZ5ewQ-24" edge="1">
          <mxGeometry relative="1" as="geometry" />
        </mxCell>
        <mxCell id="zZNGgQvaS-ZARSoZ5ewQ-167" style="edgeStyle=orthogonalEdgeStyle;rounded=0;orthogonalLoop=1;jettySize=auto;html=1;" parent="WIyWlLk6GJQsqaUBKTNV-1" source="zZNGgQvaS-ZARSoZ5ewQ-15" target="zkfFHV4jXpPFQw0GAbJ--24" edge="1">
          <mxGeometry relative="1" as="geometry" />
        </mxCell>
        <mxCell id="zZNGgQvaS-ZARSoZ5ewQ-168" style="edgeStyle=orthogonalEdgeStyle;rounded=0;orthogonalLoop=1;jettySize=auto;html=1;" parent="WIyWlLk6GJQsqaUBKTNV-1" source="zZNGgQvaS-ZARSoZ5ewQ-16" target="zZNGgQvaS-ZARSoZ5ewQ-43" edge="1">
          <mxGeometry relative="1" as="geometry" />
        </mxCell>
        <mxCell id="zZNGgQvaS-ZARSoZ5ewQ-169" style="edgeStyle=orthogonalEdgeStyle;rounded=0;orthogonalLoop=1;jettySize=auto;html=1;" parent="WIyWlLk6GJQsqaUBKTNV-1" source="zZNGgQvaS-ZARSoZ5ewQ-17" target="zZNGgQvaS-ZARSoZ5ewQ-44" edge="1">
          <mxGeometry relative="1" as="geometry" />
        </mxCell>
        <mxCell id="zZNGgQvaS-ZARSoZ5ewQ-170" style="edgeStyle=orthogonalEdgeStyle;rounded=0;orthogonalLoop=1;jettySize=auto;html=1;" parent="WIyWlLk6GJQsqaUBKTNV-1" source="zZNGgQvaS-ZARSoZ5ewQ-18" target="zZNGgQvaS-ZARSoZ5ewQ-45" edge="1">
          <mxGeometry relative="1" as="geometry" />
        </mxCell>
        <mxCell id="zZNGgQvaS-ZARSoZ5ewQ-171" style="edgeStyle=orthogonalEdgeStyle;rounded=0;orthogonalLoop=1;jettySize=auto;html=1;" parent="WIyWlLk6GJQsqaUBKTNV-1" source="zZNGgQvaS-ZARSoZ5ewQ-19" target="zZNGgQvaS-ZARSoZ5ewQ-46" edge="1">
          <mxGeometry relative="1" as="geometry" />
        </mxCell>
        <mxCell id="zZNGgQvaS-ZARSoZ5ewQ-172" style="edgeStyle=orthogonalEdgeStyle;rounded=0;orthogonalLoop=1;jettySize=auto;html=1;" parent="WIyWlLk6GJQsqaUBKTNV-1" source="zZNGgQvaS-ZARSoZ5ewQ-20" target="zZNGgQvaS-ZARSoZ5ewQ-48" edge="1">
          <mxGeometry relative="1" as="geometry" />
        </mxCell>
        <mxCell id="zZNGgQvaS-ZARSoZ5ewQ-174" style="edgeStyle=orthogonalEdgeStyle;rounded=0;orthogonalLoop=1;jettySize=auto;html=1;" parent="WIyWlLk6GJQsqaUBKTNV-1" source="zZNGgQvaS-ZARSoZ5ewQ-22" target="zZNGgQvaS-ZARSoZ5ewQ-49" edge="1">
          <mxGeometry relative="1" as="geometry" />
        </mxCell>
        <mxCell id="zZNGgQvaS-ZARSoZ5ewQ-175" style="edgeStyle=orthogonalEdgeStyle;rounded=0;orthogonalLoop=1;jettySize=auto;html=1;" parent="WIyWlLk6GJQsqaUBKTNV-1" source="zZNGgQvaS-ZARSoZ5ewQ-23" target="zZNGgQvaS-ZARSoZ5ewQ-50" edge="1">
          <mxGeometry relative="1" as="geometry" />
        </mxCell>
        <mxCell id="zZNGgQvaS-ZARSoZ5ewQ-176" style="edgeStyle=orthogonalEdgeStyle;rounded=0;orthogonalLoop=1;jettySize=auto;html=1;exitX=1;exitY=0.5;exitDx=0;exitDy=0;" parent="WIyWlLk6GJQsqaUBKTNV-1" source="zkfFHV4jXpPFQw0GAbJ--24" target="zZNGgQvaS-ZARSoZ5ewQ-84" edge="1">
          <mxGeometry relative="1" as="geometry">
            <Array as="points">
              <mxPoint x="750" y="727" />
              <mxPoint x="750" y="343" />
            </Array>
          </mxGeometry>
        </mxCell>
        <mxCell id="zZNGgQvaS-ZARSoZ5ewQ-181" style="edgeStyle=orthogonalEdgeStyle;rounded=0;orthogonalLoop=1;jettySize=auto;html=1;exitX=1;exitY=0.5;exitDx=0;exitDy=0;" parent="WIyWlLk6GJQsqaUBKTNV-1" source="zZNGgQvaS-ZARSoZ5ewQ-43" target="zZNGgQvaS-ZARSoZ5ewQ-85" edge="1">
          <mxGeometry relative="1" as="geometry">
            <Array as="points">
              <mxPoint x="770" y="753" />
              <mxPoint x="770" y="369" />
            </Array>
          </mxGeometry>
        </mxCell>
        <mxCell id="zZNGgQvaS-ZARSoZ5ewQ-183" style="edgeStyle=orthogonalEdgeStyle;rounded=0;orthogonalLoop=1;jettySize=auto;html=1;" parent="WIyWlLk6GJQsqaUBKTNV-1" source="zZNGgQvaS-ZARSoZ5ewQ-44" target="zZNGgQvaS-ZARSoZ5ewQ-95" edge="1">
          <mxGeometry relative="1" as="geometry">
            <Array as="points">
              <mxPoint x="790" y="779" />
              <mxPoint x="790" y="653" />
            </Array>
          </mxGeometry>
        </mxCell>
        <mxCell id="zZNGgQvaS-ZARSoZ5ewQ-184" style="edgeStyle=orthogonalEdgeStyle;rounded=0;orthogonalLoop=1;jettySize=auto;html=1;" parent="WIyWlLk6GJQsqaUBKTNV-1" source="zZNGgQvaS-ZARSoZ5ewQ-45" target="zZNGgQvaS-ZARSoZ5ewQ-96" edge="1">
          <mxGeometry relative="1" as="geometry">
            <Array as="points">
              <mxPoint x="810" y="805" />
              <mxPoint x="810" y="679" />
            </Array>
          </mxGeometry>
        </mxCell>
        <mxCell id="zZNGgQvaS-ZARSoZ5ewQ-186" style="edgeStyle=orthogonalEdgeStyle;rounded=0;orthogonalLoop=1;jettySize=auto;html=1;" parent="WIyWlLk6GJQsqaUBKTNV-1" source="zZNGgQvaS-ZARSoZ5ewQ-48" target="zZNGgQvaS-ZARSoZ5ewQ-110" edge="1">
          <mxGeometry relative="1" as="geometry">
            <Array as="points">
              <mxPoint x="850" y="857" />
              <mxPoint x="850" y="1085" />
            </Array>
          </mxGeometry>
        </mxCell>
        <mxCell id="zZNGgQvaS-ZARSoZ5ewQ-190" style="edgeStyle=orthogonalEdgeStyle;rounded=0;orthogonalLoop=1;jettySize=auto;html=1;" parent="WIyWlLk6GJQsqaUBKTNV-1" source="zZNGgQvaS-ZARSoZ5ewQ-189" target="zZNGgQvaS-ZARSoZ5ewQ-188" edge="1">
          <mxGeometry relative="1" as="geometry" />
        </mxCell>
        <mxCell id="DhbaXMmRCVyWjGGl7ki2-6" style="edgeStyle=orthogonalEdgeStyle;rounded=0;orthogonalLoop=1;jettySize=auto;html=1;" edge="1" parent="WIyWlLk6GJQsqaUBKTNV-1" source="DhbaXMmRCVyWjGGl7ki2-2" target="DhbaXMmRCVyWjGGl7ki2-4">
          <mxGeometry relative="1" as="geometry" />
        </mxCell>
        <mxCell id="DhbaXMmRCVyWjGGl7ki2-7" style="edgeStyle=orthogonalEdgeStyle;rounded=0;orthogonalLoop=1;jettySize=auto;html=1;" edge="1" parent="WIyWlLk6GJQsqaUBKTNV-1" source="DhbaXMmRCVyWjGGl7ki2-3" target="DhbaXMmRCVyWjGGl7ki2-5">
          <mxGeometry relative="1" as="geometry" />
        </mxCell>
        <mxCell id="DhbaXMmRCVyWjGGl7ki2-8" style="edgeStyle=orthogonalEdgeStyle;rounded=0;orthogonalLoop=1;jettySize=auto;html=1;" edge="1" parent="WIyWlLk6GJQsqaUBKTNV-1" source="DhbaXMmRCVyWjGGl7ki2-4" target="DhbaXMmRCVyWjGGl7ki2-0">
          <mxGeometry relative="1" as="geometry">
            <Array as="points">
              <mxPoint x="830" y="883" />
              <mxPoint x="830" y="1111" />
            </Array>
          </mxGeometry>
        </mxCell>
        <mxCell id="DhbaXMmRCVyWjGGl7ki2-9" style="edgeStyle=orthogonalEdgeStyle;rounded=0;orthogonalLoop=1;jettySize=auto;html=1;" edge="1" parent="WIyWlLk6GJQsqaUBKTNV-1" source="DhbaXMmRCVyWjGGl7ki2-5" target="DhbaXMmRCVyWjGGl7ki2-1">
          <mxGeometry relative="1" as="geometry">
            <Array as="points">
              <mxPoint x="810" y="909" />
              <mxPoint x="810" y="1137" />
            </Array>
          </mxGeometry>
        </mxCell>
        <mxCell id="DhbaXMmRCVyWjGGl7ki2-10" style="edgeStyle=orthogonalEdgeStyle;rounded=0;orthogonalLoop=1;jettySize=auto;html=1;" edge="1" parent="WIyWlLk6GJQsqaUBKTNV-1" source="zZNGgQvaS-ZARSoZ5ewQ-49" target="zZNGgQvaS-ZARSoZ5ewQ-192">
          <mxGeometry relative="1" as="geometry">
            <Array as="points">
              <mxPoint x="790" y="935" />
              <mxPoint x="790" y="1359" />
            </Array>
          </mxGeometry>
        </mxCell>
        <mxCell id="DhbaXMmRCVyWjGGl7ki2-11" style="edgeStyle=orthogonalEdgeStyle;rounded=0;orthogonalLoop=1;jettySize=auto;html=1;entryX=0;entryY=0.5;entryDx=0;entryDy=0;" edge="1" parent="WIyWlLk6GJQsqaUBKTNV-1" source="zZNGgQvaS-ZARSoZ5ewQ-50" target="zZNGgQvaS-ZARSoZ5ewQ-148">
          <mxGeometry relative="1" as="geometry">
            <Array as="points">
              <mxPoint x="770" y="961" />
              <mxPoint x="770" y="1385" />
            </Array>
          </mxGeometry>
        </mxCell>
        <mxCell id="DhbaXMmRCVyWjGGl7ki2-12" style="edgeStyle=orthogonalEdgeStyle;rounded=0;orthogonalLoop=1;jettySize=auto;html=1;" edge="1" parent="WIyWlLk6GJQsqaUBKTNV-1" source="zZNGgQvaS-ZARSoZ5ewQ-188" target="zZNGgQvaS-ZARSoZ5ewQ-137">
          <mxGeometry relative="1" as="geometry">
            <Array as="points">
              <mxPoint x="750" y="988" />
              <mxPoint x="750" y="1615" />
            </Array>
          </mxGeometry>
        </mxCell>
        <mxCell id="DhbaXMmRCVyWjGGl7ki2-13" style="edgeStyle=orthogonalEdgeStyle;rounded=0;orthogonalLoop=1;jettySize=auto;html=1;fillColor=#f8cecc;strokeColor=#b85450;" edge="1" parent="WIyWlLk6GJQsqaUBKTNV-1" source="zZNGgQvaS-ZARSoZ5ewQ-139" target="zZNGgQvaS-ZARSoZ5ewQ-82">
          <mxGeometry relative="1" as="geometry">
            <Array as="points">
              <mxPoint x="1220" y="1641" />
              <mxPoint x="1220" y="267" />
            </Array>
          </mxGeometry>
        </mxCell>
        <mxCell id="DhbaXMmRCVyWjGGl7ki2-14" style="edgeStyle=orthogonalEdgeStyle;rounded=0;orthogonalLoop=1;jettySize=auto;html=1;fillColor=#f8cecc;strokeColor=#b85450;" edge="1" parent="WIyWlLk6GJQsqaUBKTNV-1" source="zZNGgQvaS-ZARSoZ5ewQ-139" target="zZNGgQvaS-ZARSoZ5ewQ-81">
          <mxGeometry relative="1" as="geometry">
            <Array as="points">
              <mxPoint x="1220" y="1641" />
              <mxPoint x="1220" y="293" />
            </Array>
          </mxGeometry>
        </mxCell>
        <mxCell id="DhbaXMmRCVyWjGGl7ki2-15" style="edgeStyle=orthogonalEdgeStyle;rounded=0;orthogonalLoop=1;jettySize=auto;html=1;fillColor=#f8cecc;strokeColor=#b85450;" edge="1" parent="WIyWlLk6GJQsqaUBKTNV-1" source="zZNGgQvaS-ZARSoZ5ewQ-139" target="zZNGgQvaS-ZARSoZ5ewQ-83">
          <mxGeometry relative="1" as="geometry">
            <Array as="points">
              <mxPoint x="1220" y="1641" />
              <mxPoint x="1220" y="319" />
            </Array>
          </mxGeometry>
        </mxCell>
        <mxCell id="DhbaXMmRCVyWjGGl7ki2-16" style="edgeStyle=orthogonalEdgeStyle;rounded=0;orthogonalLoop=1;jettySize=auto;html=1;fillColor=#f8cecc;strokeColor=#b85450;" edge="1" parent="WIyWlLk6GJQsqaUBKTNV-1" source="zZNGgQvaS-ZARSoZ5ewQ-139" target="zZNGgQvaS-ZARSoZ5ewQ-92">
          <mxGeometry relative="1" as="geometry">
            <Array as="points">
              <mxPoint x="1220" y="1641" />
              <mxPoint x="1220" y="575" />
            </Array>
          </mxGeometry>
        </mxCell>
        <mxCell id="DhbaXMmRCVyWjGGl7ki2-17" style="edgeStyle=orthogonalEdgeStyle;rounded=0;orthogonalLoop=1;jettySize=auto;html=1;fillColor=#f8cecc;strokeColor=#b85450;" edge="1" parent="WIyWlLk6GJQsqaUBKTNV-1" source="zZNGgQvaS-ZARSoZ5ewQ-139" target="zZNGgQvaS-ZARSoZ5ewQ-93">
          <mxGeometry relative="1" as="geometry">
            <Array as="points">
              <mxPoint x="1220" y="1641" />
              <mxPoint x="1220" y="601" />
            </Array>
          </mxGeometry>
        </mxCell>
        <mxCell id="DhbaXMmRCVyWjGGl7ki2-18" style="edgeStyle=orthogonalEdgeStyle;rounded=0;orthogonalLoop=1;jettySize=auto;html=1;fillColor=#f8cecc;strokeColor=#b85450;" edge="1" parent="WIyWlLk6GJQsqaUBKTNV-1" source="zZNGgQvaS-ZARSoZ5ewQ-139" target="zZNGgQvaS-ZARSoZ5ewQ-94">
          <mxGeometry relative="1" as="geometry">
            <Array as="points">
              <mxPoint x="1220" y="1641" />
              <mxPoint x="1220" y="627" />
            </Array>
          </mxGeometry>
        </mxCell>
        <mxCell id="DhbaXMmRCVyWjGGl7ki2-19" style="edgeStyle=orthogonalEdgeStyle;rounded=0;orthogonalLoop=1;jettySize=auto;html=1;fillColor=#f8cecc;strokeColor=#b85450;" edge="1" parent="WIyWlLk6GJQsqaUBKTNV-1" source="zZNGgQvaS-ZARSoZ5ewQ-139" target="zZNGgQvaS-ZARSoZ5ewQ-128">
          <mxGeometry relative="1" as="geometry">
            <Array as="points">
              <mxPoint x="1220" y="1641" />
              <mxPoint x="1220" y="1189" />
            </Array>
          </mxGeometry>
        </mxCell>
        <mxCell id="DhbaXMmRCVyWjGGl7ki2-20" style="edgeStyle=orthogonalEdgeStyle;rounded=0;orthogonalLoop=1;jettySize=auto;html=1;fillColor=#f8cecc;strokeColor=#b85450;" edge="1" parent="WIyWlLk6GJQsqaUBKTNV-1" source="zZNGgQvaS-ZARSoZ5ewQ-139" target="zZNGgQvaS-ZARSoZ5ewQ-129">
          <mxGeometry relative="1" as="geometry">
            <Array as="points">
              <mxPoint x="1220" y="1641" />
              <mxPoint x="1220" y="1215" />
            </Array>
          </mxGeometry>
        </mxCell>
        <mxCell id="DhbaXMmRCVyWjGGl7ki2-23" style="edgeStyle=orthogonalEdgeStyle;rounded=0;orthogonalLoop=1;jettySize=auto;html=1;fillColor=#f8cecc;strokeColor=#b85450;" edge="1" parent="WIyWlLk6GJQsqaUBKTNV-1" source="zZNGgQvaS-ZARSoZ5ewQ-135" target="zZNGgQvaS-ZARSoZ5ewQ-147">
          <mxGeometry relative="1" as="geometry">
            <Array as="points">
              <mxPoint x="1170" y="1589" />
              <mxPoint x="1170" y="1340" />
            </Array>
          </mxGeometry>
        </mxCell>
        <mxCell id="DhbaXMmRCVyWjGGl7ki2-24" style="edgeStyle=orthogonalEdgeStyle;rounded=0;orthogonalLoop=1;jettySize=auto;html=1;fillColor=#f8cecc;strokeColor=#b85450;" edge="1" parent="WIyWlLk6GJQsqaUBKTNV-1" source="zZNGgQvaS-ZARSoZ5ewQ-139" target="zZNGgQvaS-ZARSoZ5ewQ-116">
          <mxGeometry relative="1" as="geometry">
            <Array as="points">
              <mxPoint x="1220" y="1641" />
              <mxPoint x="1220" y="1163" />
            </Array>
          </mxGeometry>
        </mxCell>
        <mxCell id="DhbaXMmRCVyWjGGl7ki2-25" style="edgeStyle=orthogonalEdgeStyle;rounded=0;orthogonalLoop=1;jettySize=auto;html=1;fillColor=#f8cecc;strokeColor=#b85450;" edge="1" parent="WIyWlLk6GJQsqaUBKTNV-1" source="zZNGgQvaS-ZARSoZ5ewQ-139" target="zZNGgQvaS-ZARSoZ5ewQ-104">
          <mxGeometry relative="1" as="geometry">
            <Array as="points">
              <mxPoint x="1220" y="1641" />
              <mxPoint x="1220" y="900" />
            </Array>
          </mxGeometry>
        </mxCell>
        <mxCell id="DhbaXMmRCVyWjGGl7ki2-26" style="edgeStyle=orthogonalEdgeStyle;rounded=0;orthogonalLoop=1;jettySize=auto;html=1;fillColor=#dae8fc;strokeColor=#6c8ebf;" edge="1" parent="WIyWlLk6GJQsqaUBKTNV-1" source="zZNGgQvaS-ZARSoZ5ewQ-137" target="zZNGgQvaS-ZARSoZ5ewQ-80">
          <mxGeometry relative="1" as="geometry">
            <Array as="points">
              <mxPoint x="1350" y="1615" />
              <mxPoint x="1350" y="241" />
            </Array>
          </mxGeometry>
        </mxCell>
        <mxCell id="DhbaXMmRCVyWjGGl7ki2-27" style="edgeStyle=orthogonalEdgeStyle;rounded=0;orthogonalLoop=1;jettySize=auto;html=1;fillColor=#dae8fc;strokeColor=#6c8ebf;" edge="1" parent="WIyWlLk6GJQsqaUBKTNV-1" source="zZNGgQvaS-ZARSoZ5ewQ-137" target="zZNGgQvaS-ZARSoZ5ewQ-91">
          <mxGeometry relative="1" as="geometry">
            <Array as="points">
              <mxPoint x="1350" y="1615" />
              <mxPoint x="1350" y="549" />
            </Array>
          </mxGeometry>
        </mxCell>
        <mxCell id="DhbaXMmRCVyWjGGl7ki2-30" style="edgeStyle=orthogonalEdgeStyle;rounded=0;orthogonalLoop=1;jettySize=auto;html=1;fillColor=#f8cecc;strokeColor=#b85450;" edge="1" parent="WIyWlLk6GJQsqaUBKTNV-1" source="zZNGgQvaS-ZARSoZ5ewQ-139" target="zZNGgQvaS-ZARSoZ5ewQ-86">
          <mxGeometry relative="1" as="geometry">
            <Array as="points">
              <mxPoint x="1220" y="1641" />
              <mxPoint x="1220" y="397" />
            </Array>
          </mxGeometry>
        </mxCell>
        <mxCell id="DhbaXMmRCVyWjGGl7ki2-31" style="edgeStyle=orthogonalEdgeStyle;rounded=0;orthogonalLoop=1;jettySize=auto;html=1;fillColor=#f8cecc;strokeColor=#b85450;" edge="1" parent="WIyWlLk6GJQsqaUBKTNV-1" source="zZNGgQvaS-ZARSoZ5ewQ-139" target="zZNGgQvaS-ZARSoZ5ewQ-97">
          <mxGeometry relative="1" as="geometry">
            <Array as="points">
              <mxPoint x="1220" y="1641" />
              <mxPoint x="1220" y="705" />
            </Array>
          </mxGeometry>
        </mxCell>
        <mxCell id="DhbaXMmRCVyWjGGl7ki2-36" style="edgeStyle=orthogonalEdgeStyle;rounded=0;orthogonalLoop=1;jettySize=auto;html=1;" edge="1" parent="WIyWlLk6GJQsqaUBKTNV-1" source="zZNGgQvaS-ZARSoZ5ewQ-46" target="zZNGgQvaS-ZARSoZ5ewQ-103">
          <mxGeometry relative="1" as="geometry">
            <Array as="points">
              <mxPoint x="870" y="831" />
              <mxPoint x="870" y="885" />
            </Array>
          </mxGeometry>
        </mxCell>
        <mxCell id="DhbaXMmRCVyWjGGl7ki2-40" style="edgeStyle=orthogonalEdgeStyle;rounded=0;orthogonalLoop=1;jettySize=auto;html=1;fillColor=#dae8fc;strokeColor=#6c8ebf;" edge="1" parent="WIyWlLk6GJQsqaUBKTNV-1" source="zZNGgQvaS-ZARSoZ5ewQ-137" target="DhbaXMmRCVyWjGGl7ki2-39">
          <mxGeometry relative="1" as="geometry">
            <Array as="points">
              <mxPoint x="1350" y="1615" />
              <mxPoint x="1350" y="1437" />
            </Array>
          </mxGeometry>
        </mxCell>
        <mxCell id="DhbaXMmRCVyWjGGl7ki2-41" style="edgeStyle=orthogonalEdgeStyle;rounded=0;orthogonalLoop=1;jettySize=auto;html=1;fillColor=#dae8fc;strokeColor=#6c8ebf;" edge="1" parent="WIyWlLk6GJQsqaUBKTNV-1" source="zZNGgQvaS-ZARSoZ5ewQ-137" target="DhbaXMmRCVyWjGGl7ki2-38">
          <mxGeometry relative="1" as="geometry">
            <Array as="points">
              <mxPoint x="1350" y="1615" />
              <mxPoint x="1350" y="1059" />
            </Array>
          </mxGeometry>
        </mxCell>
        <mxCell id="DhbaXMmRCVyWjGGl7ki2-42" style="edgeStyle=orthogonalEdgeStyle;rounded=0;orthogonalLoop=1;jettySize=auto;html=1;fillColor=#dae8fc;strokeColor=#6c8ebf;" edge="1" parent="WIyWlLk6GJQsqaUBKTNV-1" source="zZNGgQvaS-ZARSoZ5ewQ-137" target="DhbaXMmRCVyWjGGl7ki2-35">
          <mxGeometry relative="1" as="geometry">
            <Array as="points">
              <mxPoint x="1350" y="1615" />
              <mxPoint x="1350" y="859" />
            </Array>
          </mxGeometry>
        </mxCell>
      </root>
    </mxGraphModel>
  </diagram>
</mxfile>
